<?xml version="1.0" encoding="utf-8"?>
<!-- Generator: Adobe Illustrator 26.4.1, SVG Export Plug-In . SVG Version: 6.00 Build 0)  -->
<svg version="1.1" id="Layer_1" xmlns="http://www.w3.org/2000/svg" xmlns:xlink="http://www.w3.org/1999/xlink" x="0px" y="0px"
	 viewBox="0 0 300 300" style="enable-background:new 0 0 300 300;" xml:space="preserve">
<style type="text/css">
	.st0{fill:#221F76;}
	.st1{fill:none;stroke:#6CFF6F;stroke-width:8.305752e-02;stroke-miterlimit:10;}
	.st2{fill:none;stroke:#6CFF6F;stroke-width:5.839937e-02;stroke-miterlimit:10;}
	.st3{fill:none;stroke:#6CFF6F;stroke-width:3.479138e-02;stroke-miterlimit:10;}
	.st4{fill:#FF6D7E;}
	.st5{fill:#1C73E8;}
	.st6{fill:none;stroke:#6CFF6F;stroke-width:8.097573e-02;stroke-miterlimit:10;}
	.st7{fill:none;stroke:#6CFF6F;stroke-width:6.200717e-02;stroke-miterlimit:10;}
	.st8{fill:none;stroke:#6CFF6F;stroke-width:4.521294e-02;stroke-miterlimit:10;}
	.st9{fill:#FFFFFF;}
	.st10{fill:url(#SVGID_1_);}
	.st11{fill:#606060;}
	.st12{fill:none;stroke:#94FF86;stroke-width:1.000000e-02;stroke-miterlimit:10;}
	.st13{fill:#FFFF20;}
	.st14{fill:#929CFF;}
	.st15{fill:#9CA2A8;}
</style>
<g>
	<path class="st15" d="M142.8,240.4l-0.4-0.4l-68.7-68.7l0-129.2L43,11.4C31.2,1.3,7.3,13.8,7.3,30.2l0,169.3l72.6,73
		c0.5,0.5,1,1,1.5,1.5c0.6,0.6,1.2,1.2,1.8,1.8l0,0c11.8,11,27.6,17.8,45,17.8c3.1,0,6.1-0.3,9.1-0.7c0.7-0.1,1.4-0.2,2.1-0.3
		c2.9-0.5,5.8-1.2,8.6-2c0.1,0,0.3-0.1,0.4-0.2c2.7-0.9,5.4-2,7.9-3.2c0.5-0.2,1-0.5,1.5-0.7c2.7-1.4,5.3-2.8,7.7-4.5
		c0.1,0,0.1-0.1,0.2-0.1c2.5-1.7,4.8-3.6,7-5.6c0.2-0.2,0.4-0.4,0.7-0.6c4.6-4.3,8.5-9.3,11.7-14.7c0-0.1,0.1-0.1,0.1-0.2
		c0.4-0.7,0.8-1.5,1.2-2.2C170.3,257.6,154.9,251.3,142.8,240.4z"/>
	<g>
		<path class="st15" d="M278.3,106.1c0-0.1,0-0.1,0-0.2l-0.9-0.9C277.7,105.4,278.1,105.7,278.3,106.1z"/>
		<path class="st15" d="M219.9,185.9l-0.8-0.6l-7.7-7.7c-5.1,6.8-13.2,11.3-22.4,11.3l-27.5-0.2V49.2L121.7,9.5
			c-9.3-8.5-28.1,2-28.1,15.7l0,137.8l58.7,58.7l3.8,3.8c8.9,8,20.7,13,33.7,13c25,0,45.8-18.2,49.8-42.1
			C232.5,194.3,225.8,190.8,219.9,185.9z"/>
		<path class="st15" d="M292.7,100l-89.9-89.9c-7-6.5-21.3,1.5-21.3,11.9v146.7l7.5,0.1c4.3,0,7.9-3.5,7.9-7.9v-11.1
			c0-3.4,2.8-6.5,6.2-6.4c1.5,0,2.9,0.6,4,1.6l20.2,20.2l5.2,5.2c6.2,5.1,14.1,8.3,22.8,8.4c0.1,0,0.3,0,0.4,0
			c18.9,0,34.2-14.2,36.4-32.5c0.4-2,0.6-4,0.6-6C292.7,140.3,292.7,100,292.7,100z M228.3,61.8c-10.1-2.5-21.3,0.1-29.1,8
			c-1.2,1.2-2.3,2.6-3.3,4V37.1c0-5,6-7.5,9.6-4L230.4,58C232,59.6,230.5,62.3,228.3,61.8z"/>
	</g>
</g>
</svg>
